<mxfile host="Electron" modified="2023-05-03T06:28:49.768Z" agent="Mozilla/5.0 (Windows NT 10.0; Win64; x64) AppleWebKit/537.36 (KHTML, like Gecko) draw.io/21.1.2 Chrome/106.0.5249.199 Electron/21.4.3 Safari/537.36" etag="tOehjzDhebDmmznVxjzG" version="21.1.2" type="device">
  <diagram id="R2lEEEUBdFMjLlhIrx00" name="Page-1">
    <mxGraphModel dx="973" dy="469" grid="0" gridSize="10" guides="1" tooltips="1" connect="1" arrows="1" fold="1" page="1" pageScale="1" pageWidth="850" pageHeight="1100" math="0" shadow="0" extFonts="Permanent Marker^https://fonts.googleapis.com/css?family=Permanent+Marker">
      <root>
        <mxCell id="0" />
        <mxCell id="1" parent="0" />
        <mxCell id="-XtU3VHw3T-TJxtxuw-9-1" value="user" style="rounded=0;whiteSpace=wrap;html=1;" parent="1" vertex="1">
          <mxGeometry x="250" y="70" width="80" height="40" as="geometry" />
        </mxCell>
        <mxCell id="-XtU3VHw3T-TJxtxuw-9-2" value="team" style="rounded=0;whiteSpace=wrap;html=1;" parent="1" vertex="1">
          <mxGeometry x="560" y="90" width="80" height="40" as="geometry" />
        </mxCell>
        <mxCell id="-XtU3VHw3T-TJxtxuw-9-3" value="help" style="rounded=0;whiteSpace=wrap;html=1;" parent="1" vertex="1">
          <mxGeometry x="190" y="260" width="70" height="30" as="geometry" />
        </mxCell>
        <mxCell id="-XtU3VHw3T-TJxtxuw-9-4" value="player" style="rounded=0;whiteSpace=wrap;html=1;" parent="1" vertex="1">
          <mxGeometry x="650" y="275" width="90" height="35" as="geometry" />
        </mxCell>
        <mxCell id="-XtU3VHw3T-TJxtxuw-9-5" value="predictions" style="rounded=0;whiteSpace=wrap;html=1;rotation=0;" parent="1" vertex="1">
          <mxGeometry x="271.12" y="390" width="78.88" height="34.27" as="geometry" />
        </mxCell>
        <mxCell id="-XtU3VHw3T-TJxtxuw-9-6" value="&lt;u&gt;Sr no&lt;/u&gt;" style="ellipse;whiteSpace=wrap;html=1;" parent="1" vertex="1">
          <mxGeometry x="190" y="454.27" width="73.32" height="40" as="geometry" />
        </mxCell>
        <mxCell id="-XtU3VHw3T-TJxtxuw-9-7" value="score" style="ellipse;whiteSpace=wrap;html=1;" parent="1" vertex="1">
          <mxGeometry x="390" y="444.27" width="70" height="40" as="geometry" />
        </mxCell>
        <mxCell id="-XtU3VHw3T-TJxtxuw-9-8" value="" style="ellipse;whiteSpace=wrap;html=1;" parent="1" vertex="1">
          <mxGeometry x="280" y="464.27" width="85" height="50" as="geometry" />
        </mxCell>
        <mxCell id="-XtU3VHw3T-TJxtxuw-9-9" value="players" style="ellipse;whiteSpace=wrap;html=1;" parent="1" vertex="1">
          <mxGeometry x="287.5" y="469.27" width="70" height="40" as="geometry" />
        </mxCell>
        <mxCell id="-XtU3VHw3T-TJxtxuw-9-10" value="&lt;u&gt;p_id&lt;/u&gt;" style="ellipse;whiteSpace=wrap;html=1;" parent="1" vertex="1">
          <mxGeometry x="590" y="330" width="60" height="28.54" as="geometry" />
        </mxCell>
        <mxCell id="-XtU3VHw3T-TJxtxuw-9-11" value="scores" style="ellipse;whiteSpace=wrap;html=1;" parent="1" vertex="1">
          <mxGeometry x="650" y="346.46" width="70" height="38.54" as="geometry" />
        </mxCell>
        <mxCell id="-XtU3VHw3T-TJxtxuw-9-12" value="name" style="ellipse;whiteSpace=wrap;html=1;" parent="1" vertex="1">
          <mxGeometry x="730" y="341.46000000000004" width="70" height="34.27" as="geometry" />
        </mxCell>
        <mxCell id="-XtU3VHw3T-TJxtxuw-9-13" value="team" style="ellipse;whiteSpace=wrap;html=1;" parent="1" vertex="1">
          <mxGeometry x="760" y="275" width="70" height="45" as="geometry" />
        </mxCell>
        <mxCell id="-XtU3VHw3T-TJxtxuw-9-14" value="&lt;u&gt;q_id&lt;/u&gt;" style="ellipse;whiteSpace=wrap;html=1;" parent="1" vertex="1">
          <mxGeometry x="90" y="272.19" width="70" height="37.81" as="geometry" />
        </mxCell>
        <mxCell id="-XtU3VHw3T-TJxtxuw-9-15" value="title" style="ellipse;whiteSpace=wrap;html=1;" parent="1" vertex="1">
          <mxGeometry x="150" y="320" width="60" height="30" as="geometry" />
        </mxCell>
        <mxCell id="-XtU3VHw3T-TJxtxuw-9-16" value="username" style="ellipse;whiteSpace=wrap;html=1;" parent="1" vertex="1">
          <mxGeometry x="230" y="315" width="80" height="40" as="geometry" />
        </mxCell>
        <mxCell id="-XtU3VHw3T-TJxtxuw-9-17" value="description" style="ellipse;whiteSpace=wrap;html=1;" parent="1" vertex="1">
          <mxGeometry x="300" y="270" width="70" height="40" as="geometry" />
        </mxCell>
        <mxCell id="-XtU3VHw3T-TJxtxuw-9-18" value="username" style="ellipse;whiteSpace=wrap;html=1;" parent="1" vertex="1">
          <mxGeometry x="120" y="110" width="80" height="40" as="geometry" />
        </mxCell>
        <mxCell id="-XtU3VHw3T-TJxtxuw-9-19" value="password" style="ellipse;whiteSpace=wrap;html=1;" parent="1" vertex="1">
          <mxGeometry x="210" y="140" width="80" height="40" as="geometry" />
        </mxCell>
        <mxCell id="-XtU3VHw3T-TJxtxuw-9-20" value="age" style="ellipse;whiteSpace=wrap;html=1;" parent="1" vertex="1">
          <mxGeometry x="310" y="145" width="60" height="30" as="geometry" />
        </mxCell>
        <mxCell id="-XtU3VHw3T-TJxtxuw-9-21" value="email" style="ellipse;whiteSpace=wrap;html=1;" parent="1" vertex="1">
          <mxGeometry x="370" y="100" width="80" height="40" as="geometry" />
        </mxCell>
        <mxCell id="-XtU3VHw3T-TJxtxuw-9-22" value="&lt;u&gt;name&lt;/u&gt;" style="ellipse;whiteSpace=wrap;html=1;" parent="1" vertex="1">
          <mxGeometry x="470" y="145" width="80" height="40" as="geometry" />
        </mxCell>
        <mxCell id="-XtU3VHw3T-TJxtxuw-9-23" value="players" style="ellipse;whiteSpace=wrap;html=1;" parent="1" vertex="1">
          <mxGeometry x="575" y="165" width="65" height="40" as="geometry" />
        </mxCell>
        <mxCell id="-XtU3VHw3T-TJxtxuw-9-24" value="shortname" style="ellipse;whiteSpace=wrap;html=1;" parent="1" vertex="1">
          <mxGeometry x="680" y="130" width="70" height="40" as="geometry" />
        </mxCell>
        <mxCell id="-XtU3VHw3T-TJxtxuw-9-25" value="" style="endArrow=none;html=1;rounded=0;exitX=1;exitY=0;exitDx=0;exitDy=0;entryX=0;entryY=0.5;entryDx=0;entryDy=0;" parent="1" source="-XtU3VHw3T-TJxtxuw-9-18" target="-XtU3VHw3T-TJxtxuw-9-1" edge="1">
          <mxGeometry width="50" height="50" relative="1" as="geometry">
            <mxPoint x="400" y="240" as="sourcePoint" />
            <mxPoint x="450" y="190" as="targetPoint" />
          </mxGeometry>
        </mxCell>
        <mxCell id="-XtU3VHw3T-TJxtxuw-9-26" value="" style="endArrow=none;html=1;rounded=0;entryX=0.25;entryY=1;entryDx=0;entryDy=0;" parent="1" source="-XtU3VHw3T-TJxtxuw-9-19" target="-XtU3VHw3T-TJxtxuw-9-1" edge="1">
          <mxGeometry width="50" height="50" relative="1" as="geometry">
            <mxPoint x="400" y="240" as="sourcePoint" />
            <mxPoint x="450" y="190" as="targetPoint" />
          </mxGeometry>
        </mxCell>
        <mxCell id="-XtU3VHw3T-TJxtxuw-9-27" value="" style="endArrow=none;html=1;rounded=0;entryX=0.75;entryY=1;entryDx=0;entryDy=0;exitX=0.389;exitY=0.019;exitDx=0;exitDy=0;exitPerimeter=0;" parent="1" source="-XtU3VHw3T-TJxtxuw-9-20" target="-XtU3VHw3T-TJxtxuw-9-1" edge="1">
          <mxGeometry width="50" height="50" relative="1" as="geometry">
            <mxPoint x="400" y="240" as="sourcePoint" />
            <mxPoint x="450" y="190" as="targetPoint" />
          </mxGeometry>
        </mxCell>
        <mxCell id="-XtU3VHw3T-TJxtxuw-9-28" value="" style="endArrow=none;html=1;rounded=0;exitX=1;exitY=0.75;exitDx=0;exitDy=0;entryX=0.036;entryY=0.306;entryDx=0;entryDy=0;entryPerimeter=0;" parent="1" source="-XtU3VHw3T-TJxtxuw-9-1" target="-XtU3VHw3T-TJxtxuw-9-21" edge="1">
          <mxGeometry width="50" height="50" relative="1" as="geometry">
            <mxPoint x="400" y="240" as="sourcePoint" />
            <mxPoint x="450" y="190" as="targetPoint" />
          </mxGeometry>
        </mxCell>
        <mxCell id="-XtU3VHw3T-TJxtxuw-9-29" value="" style="endArrow=none;html=1;rounded=0;exitX=1;exitY=0.5;exitDx=0;exitDy=0;entryX=0;entryY=0.5;entryDx=0;entryDy=0;" parent="1" source="-XtU3VHw3T-TJxtxuw-9-3" target="-XtU3VHw3T-TJxtxuw-9-17" edge="1">
          <mxGeometry width="50" height="50" relative="1" as="geometry">
            <mxPoint x="400" y="240" as="sourcePoint" />
            <mxPoint x="450" y="190" as="targetPoint" />
          </mxGeometry>
        </mxCell>
        <mxCell id="-XtU3VHw3T-TJxtxuw-9-30" value="" style="endArrow=none;html=1;rounded=0;exitX=0.75;exitY=1;exitDx=0;exitDy=0;entryX=0.402;entryY=0.044;entryDx=0;entryDy=0;entryPerimeter=0;" parent="1" source="-XtU3VHw3T-TJxtxuw-9-3" target="-XtU3VHw3T-TJxtxuw-9-16" edge="1">
          <mxGeometry width="50" height="50" relative="1" as="geometry">
            <mxPoint x="400" y="240" as="sourcePoint" />
            <mxPoint x="260" y="310" as="targetPoint" />
          </mxGeometry>
        </mxCell>
        <mxCell id="-XtU3VHw3T-TJxtxuw-9-31" value="" style="endArrow=none;html=1;rounded=0;exitX=0.5;exitY=0;exitDx=0;exitDy=0;entryX=0.25;entryY=1;entryDx=0;entryDy=0;" parent="1" source="-XtU3VHw3T-TJxtxuw-9-15" target="-XtU3VHw3T-TJxtxuw-9-3" edge="1">
          <mxGeometry width="50" height="50" relative="1" as="geometry">
            <mxPoint x="400" y="240" as="sourcePoint" />
            <mxPoint x="450" y="190" as="targetPoint" />
          </mxGeometry>
        </mxCell>
        <mxCell id="-XtU3VHw3T-TJxtxuw-9-32" value="" style="endArrow=none;html=1;rounded=0;exitX=1;exitY=0;exitDx=0;exitDy=0;entryX=0;entryY=0.5;entryDx=0;entryDy=0;" parent="1" source="-XtU3VHw3T-TJxtxuw-9-14" target="-XtU3VHw3T-TJxtxuw-9-3" edge="1">
          <mxGeometry width="50" height="50" relative="1" as="geometry">
            <mxPoint x="400" y="240" as="sourcePoint" />
            <mxPoint x="450" y="190" as="targetPoint" />
          </mxGeometry>
        </mxCell>
        <mxCell id="-XtU3VHw3T-TJxtxuw-9-33" value="" style="endArrow=none;html=1;rounded=0;exitX=0.5;exitY=0;exitDx=0;exitDy=0;entryX=0;entryY=0.75;entryDx=0;entryDy=0;" parent="1" source="-XtU3VHw3T-TJxtxuw-9-6" target="-XtU3VHw3T-TJxtxuw-9-5" edge="1">
          <mxGeometry width="50" height="50" relative="1" as="geometry">
            <mxPoint x="270" y="404.27" as="sourcePoint" />
            <mxPoint x="320" y="354.27" as="targetPoint" />
          </mxGeometry>
        </mxCell>
        <mxCell id="-XtU3VHw3T-TJxtxuw-9-34" value="" style="endArrow=none;html=1;rounded=0;exitX=0.5;exitY=0;exitDx=0;exitDy=0;entryX=0.5;entryY=1;entryDx=0;entryDy=0;" parent="1" source="-XtU3VHw3T-TJxtxuw-9-8" target="-XtU3VHw3T-TJxtxuw-9-5" edge="1">
          <mxGeometry width="50" height="50" relative="1" as="geometry">
            <mxPoint x="270" y="404.27" as="sourcePoint" />
            <mxPoint x="320" y="354.27" as="targetPoint" />
          </mxGeometry>
        </mxCell>
        <mxCell id="-XtU3VHw3T-TJxtxuw-9-36" value="" style="endArrow=none;html=1;rounded=0;exitX=0;exitY=0;exitDx=0;exitDy=0;entryX=1;entryY=0.75;entryDx=0;entryDy=0;" parent="1" source="-XtU3VHw3T-TJxtxuw-9-7" target="-XtU3VHw3T-TJxtxuw-9-5" edge="1">
          <mxGeometry width="50" height="50" relative="1" as="geometry">
            <mxPoint x="270" y="404.27" as="sourcePoint" />
            <mxPoint x="320" y="354.27" as="targetPoint" />
          </mxGeometry>
        </mxCell>
        <mxCell id="-XtU3VHw3T-TJxtxuw-9-37" value="" style="endArrow=none;html=1;rounded=0;exitX=0.166;exitY=1.031;exitDx=0;exitDy=0;exitPerimeter=0;entryX=0.675;entryY=-0.009;entryDx=0;entryDy=0;entryPerimeter=0;" parent="1" source="-XtU3VHw3T-TJxtxuw-9-4" target="-XtU3VHw3T-TJxtxuw-9-10" edge="1">
          <mxGeometry width="50" height="50" relative="1" as="geometry">
            <mxPoint x="400" y="370" as="sourcePoint" />
            <mxPoint x="450" y="320" as="targetPoint" />
          </mxGeometry>
        </mxCell>
        <mxCell id="-XtU3VHw3T-TJxtxuw-9-38" value="" style="endArrow=none;html=1;rounded=0;entryX=0.444;entryY=1;entryDx=0;entryDy=0;entryPerimeter=0;exitX=0.383;exitY=0.05;exitDx=0;exitDy=0;exitPerimeter=0;" parent="1" source="-XtU3VHw3T-TJxtxuw-9-11" target="-XtU3VHw3T-TJxtxuw-9-4" edge="1">
          <mxGeometry width="50" height="50" relative="1" as="geometry">
            <mxPoint x="680" y="340" as="sourcePoint" />
            <mxPoint x="450" y="320" as="targetPoint" />
          </mxGeometry>
        </mxCell>
        <mxCell id="-XtU3VHw3T-TJxtxuw-9-39" value="" style="endArrow=none;html=1;rounded=0;entryX=0.75;entryY=1;entryDx=0;entryDy=0;exitX=0;exitY=0;exitDx=0;exitDy=0;" parent="1" source="-XtU3VHw3T-TJxtxuw-9-12" target="-XtU3VHw3T-TJxtxuw-9-4" edge="1">
          <mxGeometry width="50" height="50" relative="1" as="geometry">
            <mxPoint x="400" y="370" as="sourcePoint" />
            <mxPoint x="450" y="320" as="targetPoint" />
          </mxGeometry>
        </mxCell>
        <mxCell id="-XtU3VHw3T-TJxtxuw-9-40" value="" style="endArrow=none;html=1;rounded=0;exitX=1;exitY=0.5;exitDx=0;exitDy=0;entryX=0;entryY=0.5;entryDx=0;entryDy=0;" parent="1" source="-XtU3VHw3T-TJxtxuw-9-4" target="-XtU3VHw3T-TJxtxuw-9-13" edge="1">
          <mxGeometry width="50" height="50" relative="1" as="geometry">
            <mxPoint x="400" y="370" as="sourcePoint" />
            <mxPoint x="450" y="320" as="targetPoint" />
          </mxGeometry>
        </mxCell>
        <mxCell id="-XtU3VHw3T-TJxtxuw-9-41" value="" style="endArrow=none;html=1;rounded=0;exitX=1;exitY=0;exitDx=0;exitDy=0;entryX=0;entryY=1;entryDx=0;entryDy=0;" parent="1" source="-XtU3VHw3T-TJxtxuw-9-22" target="-XtU3VHw3T-TJxtxuw-9-2" edge="1">
          <mxGeometry width="50" height="50" relative="1" as="geometry">
            <mxPoint x="400" y="240" as="sourcePoint" />
            <mxPoint x="450" y="190" as="targetPoint" />
          </mxGeometry>
        </mxCell>
        <mxCell id="-XtU3VHw3T-TJxtxuw-9-42" value="" style="endArrow=none;html=1;rounded=0;exitX=0.5;exitY=0;exitDx=0;exitDy=0;entryX=0.5;entryY=1;entryDx=0;entryDy=0;" parent="1" source="-XtU3VHw3T-TJxtxuw-9-23" target="-XtU3VHw3T-TJxtxuw-9-2" edge="1">
          <mxGeometry width="50" height="50" relative="1" as="geometry">
            <mxPoint x="400" y="240" as="sourcePoint" />
            <mxPoint x="450" y="190" as="targetPoint" />
          </mxGeometry>
        </mxCell>
        <mxCell id="-XtU3VHw3T-TJxtxuw-9-43" value="" style="endArrow=none;html=1;rounded=0;exitX=0;exitY=0;exitDx=0;exitDy=0;entryX=1;entryY=0.75;entryDx=0;entryDy=0;" parent="1" source="-XtU3VHw3T-TJxtxuw-9-24" target="-XtU3VHw3T-TJxtxuw-9-2" edge="1">
          <mxGeometry width="50" height="50" relative="1" as="geometry">
            <mxPoint x="400" y="240" as="sourcePoint" />
            <mxPoint x="450" y="190" as="targetPoint" />
          </mxGeometry>
        </mxCell>
        <mxCell id="-XtU3VHw3T-TJxtxuw-9-44" value="can take" style="rhombus;whiteSpace=wrap;html=1;" parent="1" vertex="1">
          <mxGeometry x="270" y="200" width="90" height="30" as="geometry" />
        </mxCell>
        <mxCell id="-XtU3VHw3T-TJxtxuw-9-45" value="" style="endArrow=none;html=1;rounded=0;exitX=0.5;exitY=1;exitDx=0;exitDy=0;entryX=0.5;entryY=0;entryDx=0;entryDy=0;" parent="1" source="-XtU3VHw3T-TJxtxuw-9-1" target="-XtU3VHw3T-TJxtxuw-9-44" edge="1">
          <mxGeometry width="50" height="50" relative="1" as="geometry">
            <mxPoint x="400" y="240" as="sourcePoint" />
            <mxPoint x="450" y="190" as="targetPoint" />
          </mxGeometry>
        </mxCell>
        <mxCell id="-XtU3VHw3T-TJxtxuw-9-46" value="" style="endArrow=none;html=1;rounded=0;exitX=0.5;exitY=0;exitDx=0;exitDy=0;entryX=0.5;entryY=1;entryDx=0;entryDy=0;" parent="1" source="-XtU3VHw3T-TJxtxuw-9-3" target="-XtU3VHw3T-TJxtxuw-9-44" edge="1">
          <mxGeometry width="50" height="50" relative="1" as="geometry">
            <mxPoint x="400" y="240" as="sourcePoint" />
            <mxPoint x="450" y="190" as="targetPoint" />
          </mxGeometry>
        </mxCell>
        <mxCell id="-XtU3VHw3T-TJxtxuw-9-47" value="1" style="text;html=1;align=center;verticalAlign=middle;resizable=0;points=[];autosize=1;strokeColor=none;fillColor=none;" parent="1" vertex="1">
          <mxGeometry x="225" y="225" width="30" height="30" as="geometry" />
        </mxCell>
        <mxCell id="-XtU3VHw3T-TJxtxuw-9-48" value="m" style="text;html=1;align=center;verticalAlign=middle;resizable=0;points=[];autosize=1;strokeColor=none;fillColor=none;" parent="1" vertex="1">
          <mxGeometry x="290" y="170" width="30" height="30" as="geometry" />
        </mxCell>
        <mxCell id="-XtU3VHw3T-TJxtxuw-9-49" value="" style="endArrow=none;html=1;rounded=0;entryX=0.75;entryY=1;entryDx=0;entryDy=0;" parent="1" target="-XtU3VHw3T-TJxtxuw-9-2" edge="1">
          <mxGeometry width="50" height="50" relative="1" as="geometry">
            <mxPoint x="680" y="200" as="sourcePoint" />
            <mxPoint x="450" y="190" as="targetPoint" />
          </mxGeometry>
        </mxCell>
        <mxCell id="-XtU3VHw3T-TJxtxuw-9-50" value="has" style="rhombus;whiteSpace=wrap;html=1;" parent="1" vertex="1">
          <mxGeometry x="640" y="200" width="80" height="30" as="geometry" />
        </mxCell>
        <mxCell id="-XtU3VHw3T-TJxtxuw-9-51" value="" style="endArrow=none;html=1;rounded=0;exitX=0.5;exitY=1;exitDx=0;exitDy=0;entryX=0.5;entryY=0;entryDx=0;entryDy=0;" parent="1" source="-XtU3VHw3T-TJxtxuw-9-50" target="-XtU3VHw3T-TJxtxuw-9-4" edge="1">
          <mxGeometry width="50" height="50" relative="1" as="geometry">
            <mxPoint x="400" y="240" as="sourcePoint" />
            <mxPoint x="450" y="190" as="targetPoint" />
          </mxGeometry>
        </mxCell>
        <mxCell id="-XtU3VHw3T-TJxtxuw-9-52" value="match" style="rounded=0;whiteSpace=wrap;html=1;" parent="1" vertex="1">
          <mxGeometry x="550" y="397.81" width="65" height="26.46" as="geometry" />
        </mxCell>
        <mxCell id="-XtU3VHw3T-TJxtxuw-9-53" value="&lt;u&gt;m_id&lt;/u&gt;" style="ellipse;whiteSpace=wrap;html=1;" parent="1" vertex="1">
          <mxGeometry x="490" y="444.27" width="70" height="40" as="geometry" />
        </mxCell>
        <mxCell id="-XtU3VHw3T-TJxtxuw-9-54" value="venue" style="ellipse;whiteSpace=wrap;html=1;" parent="1" vertex="1">
          <mxGeometry x="570" y="450" width="60" height="40" as="geometry" />
        </mxCell>
        <mxCell id="-XtU3VHw3T-TJxtxuw-9-55" value="result" style="ellipse;whiteSpace=wrap;html=1;" parent="1" vertex="1">
          <mxGeometry x="645" y="424.27" width="70" height="40" as="geometry" />
        </mxCell>
        <mxCell id="-XtU3VHw3T-TJxtxuw-9-56" value="" style="endArrow=none;html=1;rounded=0;exitX=0.719;exitY=0.048;exitDx=0;exitDy=0;exitPerimeter=0;entryX=0.25;entryY=1;entryDx=0;entryDy=0;" parent="1" source="-XtU3VHw3T-TJxtxuw-9-53" target="-XtU3VHw3T-TJxtxuw-9-52" edge="1">
          <mxGeometry width="50" height="50" relative="1" as="geometry">
            <mxPoint x="380" y="280" as="sourcePoint" />
            <mxPoint x="430" y="230" as="targetPoint" />
          </mxGeometry>
        </mxCell>
        <mxCell id="-XtU3VHw3T-TJxtxuw-9-57" value="" style="endArrow=none;html=1;rounded=0;exitX=0.5;exitY=0;exitDx=0;exitDy=0;entryX=0.5;entryY=1;entryDx=0;entryDy=0;" parent="1" source="-XtU3VHw3T-TJxtxuw-9-54" target="-XtU3VHw3T-TJxtxuw-9-52" edge="1">
          <mxGeometry width="50" height="50" relative="1" as="geometry">
            <mxPoint x="380" y="280" as="sourcePoint" />
            <mxPoint x="430" y="230" as="targetPoint" />
          </mxGeometry>
        </mxCell>
        <mxCell id="-XtU3VHw3T-TJxtxuw-9-60" value="" style="endArrow=none;html=1;rounded=0;exitX=0;exitY=0;exitDx=0;exitDy=0;entryX=1;entryY=0.75;entryDx=0;entryDy=0;" parent="1" source="-XtU3VHw3T-TJxtxuw-9-55" target="-XtU3VHw3T-TJxtxuw-9-52" edge="1">
          <mxGeometry width="50" height="50" relative="1" as="geometry">
            <mxPoint x="390" y="290" as="sourcePoint" />
            <mxPoint x="430" y="230" as="targetPoint" />
          </mxGeometry>
        </mxCell>
        <mxCell id="-XtU3VHw3T-TJxtxuw-9-61" value="has" style="rhombus;whiteSpace=wrap;html=1;" parent="1" vertex="1">
          <mxGeometry x="410" y="358.54" width="80" height="44.27" as="geometry" />
        </mxCell>
        <mxCell id="-XtU3VHw3T-TJxtxuw-9-62" value="" style="endArrow=none;html=1;rounded=0;exitX=0.75;exitY=0;exitDx=0;exitDy=0;entryX=0;entryY=0.5;entryDx=0;entryDy=0;" parent="1" source="-XtU3VHw3T-TJxtxuw-9-5" target="-XtU3VHw3T-TJxtxuw-9-61" edge="1">
          <mxGeometry width="50" height="50" relative="1" as="geometry">
            <mxPoint x="380" y="280" as="sourcePoint" />
            <mxPoint x="430" y="230" as="targetPoint" />
          </mxGeometry>
        </mxCell>
        <mxCell id="-XtU3VHw3T-TJxtxuw-9-63" value="" style="endArrow=none;html=1;rounded=0;entryX=0.5;entryY=0;entryDx=0;entryDy=0;exitX=1;exitY=0.5;exitDx=0;exitDy=0;exitPerimeter=0;" parent="1" source="-XtU3VHw3T-TJxtxuw-9-61" target="-XtU3VHw3T-TJxtxuw-9-52" edge="1">
          <mxGeometry width="50" height="50" relative="1" as="geometry">
            <mxPoint x="380" y="280" as="sourcePoint" />
            <mxPoint x="430" y="230" as="targetPoint" />
          </mxGeometry>
        </mxCell>
        <mxCell id="-XtU3VHw3T-TJxtxuw-9-64" value="1" style="text;html=1;align=center;verticalAlign=middle;resizable=0;points=[];autosize=1;strokeColor=none;fillColor=none;" parent="1" vertex="1">
          <mxGeometry x="515" y="365" width="30" height="30" as="geometry" />
        </mxCell>
        <mxCell id="-XtU3VHw3T-TJxtxuw-9-65" value="1" style="text;html=1;align=center;verticalAlign=middle;resizable=0;points=[];autosize=1;strokeColor=none;fillColor=none;" parent="1" vertex="1">
          <mxGeometry x="365" y="355" width="30" height="30" as="geometry" />
        </mxCell>
        <mxCell id="-XtU3VHw3T-TJxtxuw-9-66" value="1" style="text;html=1;align=center;verticalAlign=middle;resizable=0;points=[];autosize=1;strokeColor=none;fillColor=none;" parent="1" vertex="1">
          <mxGeometry x="645" y="145" width="30" height="30" as="geometry" />
        </mxCell>
        <mxCell id="-XtU3VHw3T-TJxtxuw-9-67" value="m" style="text;html=1;align=center;verticalAlign=middle;resizable=0;points=[];autosize=1;strokeColor=none;fillColor=none;" parent="1" vertex="1">
          <mxGeometry x="685" y="235" width="30" height="30" as="geometry" />
        </mxCell>
        <mxCell id="dr0TC0QR3y4Dqa7wbKTd-1" value="vaibhav patel&lt;br&gt;201070055" style="text;html=1;align=center;verticalAlign=middle;resizable=0;points=[];autosize=1;strokeColor=none;fillColor=none;" vertex="1" parent="1">
          <mxGeometry x="405" y="220" width="90" height="40" as="geometry" />
        </mxCell>
        <mxCell id="dr0TC0QR3y4Dqa7wbKTd-2" value="ER diagram" style="text;html=1;align=center;verticalAlign=middle;resizable=0;points=[];autosize=1;strokeColor=none;fillColor=none;" vertex="1" parent="1">
          <mxGeometry x="405" y="300" width="90" height="30" as="geometry" />
        </mxCell>
      </root>
    </mxGraphModel>
  </diagram>
</mxfile>
